<?xml version="1.0" encoding="UTF-8"?>
<svg version="1.1" xmlns="http://www.w3.org/2000/svg" width="512" height="512">
<path d="M0 0 C7.36891101 -0.07587179 14.73772186 -0.12852436 22.10693359 -0.16479492 C24.61543542 -0.1799103 27.12391072 -0.20040298 29.63232422 -0.22631836 C33.23151182 -0.26258042 36.830351 -0.27969874 40.4296875 -0.29296875 C41.55680145 -0.30845261 42.68391541 -0.32393646 43.84518433 -0.33988953 C44.88611237 -0.34011612 45.92704041 -0.34034271 46.99951172 -0.34057617 C47.91884491 -0.34723801 48.8381781 -0.35389984 49.78536987 -0.36076355 C50.51619781 -0.24171158 51.24702576 -0.12265961 52 0 C54.44875205 3.67312807 55.13744342 7.29518273 56.06298828 11.53881836 C56.35603348 12.84656975 56.35603348 12.84656975 56.65499878 14.18074036 C57.29971731 17.06574963 57.93520774 19.95270413 58.5703125 22.83984375 C59.01542608 24.84389197 59.46097848 26.84784278 59.9069519 28.85169983 C60.84057235 33.05317135 61.76980314 37.25558225 62.69580078 41.45874023 C63.88345734 46.84855309 65.0804735 52.23623323 66.28059578 57.62328243 C67.20174548 61.76177521 68.11866894 65.9011951 69.03423691 70.04092598 C69.47407925 72.0279196 69.91506654 74.01466012 70.35721207 76.0011425 C70.97426062 78.7771199 71.58579367 81.55425513 72.19580078 84.33178711 C72.37967346 85.15425934 72.56354614 85.97673157 72.75299072 86.8241272 C73.51615285 90.3237388 74 93.40013765 74 97 C76.99513944 94.41635494 78.44272461 91.47272239 80.1875 87.953125 C80.48589279 87.3548288 80.78428558 86.75653259 81.09172058 86.1401062 C82.0672304 84.17969044 83.03374756 82.21499291 84 80.25 C84.6836487 78.87075648 85.36765318 77.49168926 86.05200195 76.11279297 C90.25802751 67.62014735 94.36699135 59.08411977 98.42138672 50.51806641 C103.35480472 40.15409227 108.49590119 29.89311612 113.625 19.625 C114.30893326 18.25338715 114.30893326 18.25338715 115.00668335 16.85406494 C116.30683345 14.24790148 117.60989922 11.64321961 118.9140625 9.0390625 C119.31145126 8.24230103 119.70884003 7.44553955 120.11827087 6.62463379 C122.88474532 1.11525468 122.88474532 1.11525468 124 0 C125.68801985 -0.09353163 127.37995207 -0.11744791 129.07055664 -0.11352539 C130.15160172 -0.11344986 131.23264679 -0.11337433 132.34645081 -0.11329651 C134.110485 -0.10555458 134.110485 -0.10555458 135.91015625 -0.09765625 C137.10732773 -0.0962413 138.30449921 -0.09482635 139.53794861 -0.09336853 C143.37949066 -0.08774979 147.22097543 -0.07519411 151.0625 -0.0625 C153.65950437 -0.05748741 156.25650965 -0.05292409 158.85351562 -0.04882812 C165.23569679 -0.03777427 171.6178443 -0.02101792 178 0 C178.28939117 7.57559453 177.18160277 14.88385015 176.10400391 22.3671875 C175.89989076 23.81343146 175.69625478 25.25974283 175.49305725 26.70611572 C174.94229681 30.6158871 174.384585 34.52463727 173.82535219 38.43320465 C173.23955451 42.53423767 172.65942602 46.63607314 172.07846069 50.73779297 C171.10210849 57.6245829 170.12126029 64.5107211 169.13769531 71.39648438 C168.00257415 79.34363858 166.87442214 87.2917582 165.75004065 95.24043846 C164.66583222 102.90403968 163.57681415 110.56694997 162.48557663 118.22955322 C162.02236804 121.48271393 161.56080273 124.73610142 161.10057449 127.98968506 C160.55782035 131.82504265 160.01083145 135.65977362 159.46064568 139.49407196 C159.26006214 140.89665945 159.06089547 142.29945044 158.8632946 143.70246124 C157.8940841 150.57775622 156.86701028 157.30707595 155 164 C149.90968245 164.04936158 144.81950357 164.08570105 139.72900391 164.10986328 C137.99655735 164.11993376 136.26412784 164.13359089 134.53173828 164.15087891 C132.04455361 164.17508162 129.55759325 164.18647239 127.0703125 164.1953125 C126.29317902 164.20563507 125.51604553 164.21595764 124.71536255 164.22659302 C122.80874507 164.22699271 120.90268964 164.1223214 119 164 C117 162 117 162 116.91233826 159.9899292 C118.00820112 148.9363262 119.60214619 137.94943004 121.16015625 126.953125 C121.47290308 124.72829225 121.78535254 122.50341768 122.09751892 120.27850342 C122.91489669 114.45852391 123.73628052 108.63911679 124.55853271 102.81982422 C125.39888918 96.86720594 126.23541039 90.91404883 127.07226562 84.9609375 C128.71111503 73.30676461 130.35420201 61.6531935 132 50 C129.54390152 54.89968953 127.08920843 59.80007983 124.63572693 64.70108032 C123.80363954 66.36276523 122.97119095 68.02426932 122.13835144 69.68557739 C117.36369407 79.2104886 112.62340331 88.74541159 108.0625 98.375 C107.38899002 99.79597992 107.38899002 99.79597992 106.70187378 101.2456665 C106.30654449 102.07983093 105.91121521 102.91399536 105.50390625 103.7734375 C102.4769497 110.13206978 99.30595144 116.41687593 96.13647461 122.70532227 C92.23736848 130.46512313 88.48534261 138.29115619 84.79101562 146.15039062 C77.55809746 161.44190254 77.55809746 161.44190254 75 164 C71.02724185 164.25256877 67.04233825 164.18522451 63.0625 164.1875 C61.93908203 164.19974609 60.81566406 164.21199219 59.65820312 164.22460938 C58.58634766 164.22654297 57.51449219 164.22847656 56.41015625 164.23046875 C55.42152588 164.23457764 54.43289551 164.23868652 53.41430664 164.24291992 C51 164 51 164 49 162 C48.39470482 160.05999088 48.39470482 160.05999088 47.88632202 157.64161682 C47.69004715 156.72606018 47.49377228 155.81050354 47.29154968 154.86720276 C47.08367325 153.85987595 46.87579681 152.85254913 46.66162109 151.81469727 C46.43699692 150.7560849 46.21237274 149.69747253 45.98094177 148.60678101 C45.23775375 145.09482901 44.50545874 141.58070137 43.7734375 138.06640625 C43.26120201 135.63252426 42.74838742 133.19876408 42.23501587 130.76512146 C41.02160733 125.0042445 39.81537253 119.24189937 38.61216223 113.47888464 C37.37940019 107.57719962 36.1366438 101.67764592 34.89285851 95.77827549 C33.83342333 90.75092318 32.77728213 85.72288383 31.72230911 80.69459343 C31.21499242 78.27706187 30.70701527 75.85966881 30.1983757 73.44241524 C29.48899655 70.06715229 28.78367002 66.691069 28.07958984 63.31469727 C27.86766495 62.30939468 27.65574005 61.3040921 27.43739319 60.26832581 C27.24675797 59.34994934 27.05612274 58.43157288 26.85971069 57.48536682 C26.69269842 56.68692636 26.52568615 55.88848589 26.3536129 55.06585026 C26 53 26 53 26 50 C25.34 50 24.68 50 24 50 C23.85377197 51.30291992 23.70754395 52.60583984 23.55688477 53.94824219 C21.30819958 73.51425637 18.53994286 93.00434944 15.7565918 112.5 C15.06566229 117.34176822 14.38322153 122.18469483 13.70264339 127.0279274 C13.17244948 130.79116615 12.63658889 134.55358187 12.099123 138.31578827 C11.84470758 140.10323867 11.59234222 141.89098217 11.3421154 143.67902374 C10.99437389 146.1596304 10.63869057 148.6389744 10.28100586 151.11816406 C10.18070068 151.8463736 10.08039551 152.57458313 9.97705078 153.32485962 C9.41770237 157.13813249 8.60781443 160.49160485 7 164 C2.8882744 164.02465746 -1.22342278 164.04283959 -5.33520508 164.05493164 C-6.73495228 164.0599708 -8.1346942 164.06680216 -9.53442383 164.07543945 C-11.54245777 164.0875232 -13.55052957 164.09269807 -15.55859375 164.09765625 C-17.37315063 164.10551147 -17.37315063 164.10551147 -19.22436523 164.11352539 C-22 164 -22 164 -23 163 C-22.79574741 153.75981413 -21.35918149 144.54013241 -20.08227539 135.40063477 C-19.88801307 133.98979493 -19.69407858 132.57890993 -19.5004425 131.16798401 C-18.97931401 127.37869403 -18.45324393 123.59010654 -17.92588735 119.8016789 C-17.48454633 116.62804562 -17.0455933 113.45408381 -16.60659307 110.28012604 C-15.57118719 102.79472459 -14.53165077 95.30990486 -13.48950195 87.82543945 C-12.41627947 80.11726304 -11.35018853 72.40812365 -10.28753287 64.698484 C-9.37188277 58.05726669 -8.45179698 51.41667418 -7.52816576 44.77656215 C-6.97783276 40.81980302 -6.42917502 36.86283031 -5.88481331 32.90524483 C-5.37363632 29.19031896 -4.85691376 25.47620577 -4.33595085 21.76264 C-4.05580194 19.75580246 -3.78128943 17.7481806 -3.50695801 15.74053955 C-3.33737076 14.53944046 -3.16778351 13.33834137 -2.99305725 12.10084534 C-2.84871278 11.06135522 -2.70436831 10.0218651 -2.55564976 8.95087528 C-1.97016334 5.8415472 -1.06580788 2.9757193 0 0 Z " fill="#000000" transform="translate(308,62)"/>
<path d="M0 0 C12.54 0 25.08 0 38 0 C39.40504374 3.51260935 40.3349461 6.08362639 40.99978638 9.67445374 C41.17081879 10.58427505 41.3418512 11.49409637 41.51806641 12.43148804 C41.78780273 13.90991684 41.78780273 13.90991684 42.06298828 15.41821289 C42.25835175 16.46590347 42.45371521 17.51359406 42.65499878 18.59303284 C43.29856894 22.05197729 43.93461417 25.51225713 44.5703125 28.97265625 C45.01550857 31.37737915 45.46105996 33.78203629 45.9069519 36.18663025 C46.83984728 41.22383715 47.76914974 46.26168956 48.69580078 51.30004883 C49.88469442 57.76321998 51.0813739 64.22491928 52.28059578 70.68618107 C53.20122464 75.6501234 54.11830018 80.61471685 55.03423691 85.5795269 C55.47424657 87.96278159 55.9152352 90.34585576 56.35721207 92.72874641 C56.97360465 96.05558626 57.5853502 99.38324708 58.19580078 102.71118164 C58.37967346 103.69882507 58.56354614 104.68646851 58.75299072 105.70404053 C58.91838348 106.61104202 59.08377625 107.51804352 59.25418091 108.45252991 C59.39907015 109.23877778 59.54395939 110.02502565 59.69323921 110.83509922 C60 113 60 113 60 117 C60.66 117 61.32 117 62 117 C62.17400833 116.44520966 62.34801666 115.89041931 62.52729797 115.31881714 C64.25080682 109.9692647 66.27551496 104.90192202 68.66796875 99.8203125 C69.01964111 99.06282715 69.37131348 98.3053418 69.73364258 97.52490234 C70.48815921 95.90105851 71.24483811 94.27821788 72.00350952 92.65631104 C73.62620725 89.18706637 75.23813008 85.71284839 76.85090637 82.23898315 C77.6820452 80.44911271 78.51374428 78.65950232 79.34599304 76.87014771 C83.32906315 68.30476595 87.26464279 59.71808847 91.1875 51.125 C91.83688542 49.70408847 92.4862994 48.28319 93.13574219 46.86230469 C96.53597839 39.41936379 99.92199237 31.97009534 103.296875 24.515625 C103.99843475 22.96727653 104.70001323 21.41893656 105.40161133 19.87060547 C106.73485808 16.92812304 108.06498718 13.98425852 109.39331055 11.03955078 C109.98997067 9.72163398 110.58672626 8.4037604 111.18359375 7.0859375 C111.70493896 5.9314209 112.22628418 4.7769043 112.76342773 3.58740234 C114 1 114 1 115 0 C117.44830426 -0.08843793 119.86820599 -0.11528752 122.31640625 -0.09765625 C123.41298805 -0.09553383 123.41298805 -0.09553383 124.53172302 -0.09336853 C126.87535632 -0.08775408 129.21889539 -0.07519922 131.5625 -0.0625 C133.14778508 -0.05748686 134.73307166 -0.05292363 136.31835938 -0.04882812 C140.2122761 -0.03777997 144.10612205 -0.02050572 148 0 C149.19716203 3.59148609 148.79863378 4.03456798 147.18359375 7.3046875 C146.75699463 8.1817334 146.33039551 9.0587793 145.89086914 9.96240234 C145.41125732 10.92355957 144.93164551 11.8847168 144.4375 12.875 C143.40356993 14.98954622 142.3697193 17.10413129 141.3359375 19.21875 C140.78647461 20.33378906 140.23701172 21.44882813 139.67089844 22.59765625 C137.49939584 27.01934828 135.36662449 31.4591626 133.23339844 35.89941406 C126.08601019 50.7664829 118.84364817 65.58741315 111.60693359 80.41113281 C106.47528454 90.92316159 101.34980326 101.43812696 96.23922729 111.9604187 C95.19818119 114.10301683 94.15594978 116.24503505 93.11352539 118.38696289 C89.97997189 124.83014572 86.86017802 131.27913872 83.78334045 137.74963379 C82.39784126 140.66257536 81.00680406 143.57285803 79.6156311 146.48309326 C78.96149 147.85618302 78.31036495 149.23071419 77.66244507 150.60675049 C76.77441701 152.49269335 75.87659092 154.37366794 74.9765625 156.25390625 C74.47205566 157.31939697 73.96754883 158.3848877 73.44775391 159.48266602 C72 162 72 162 69 164 C66.34974072 164.20762825 63.807078 164.30404306 61.15625 164.30078125 C60.39074829 164.30506638 59.62524658 164.3093515 58.83654785 164.31376648 C57.21932972 164.31950517 55.60208577 164.32001342 53.98486328 164.31567383 C51.50899347 164.31251149 49.03431603 164.33598531 46.55859375 164.36132812 C44.98698068 164.36360092 43.41536438 164.36430471 41.84375 164.36328125 C41.10306274 164.372491 40.36237549 164.38170074 39.59924316 164.39118958 C34.46405065 164.3448878 34.46405065 164.3448878 32.36022663 162.7813015 C30.67185787 160.57027744 30.27274083 158.85354848 29.73051453 156.12686157 C29.52470764 155.12129211 29.31890076 154.11572266 29.1068573 153.0796814 C28.89330093 151.97653595 28.67974457 150.8733905 28.4597168 149.73681641 C28.22507721 148.57351807 27.99043762 147.41021973 27.74868774 146.21166992 C27.10587521 143.01323369 26.47334891 139.81296426 25.84518027 136.61162615 C25.17973963 133.23357556 24.50101165 129.8581969 23.82368469 126.48251343 C22.53617746 120.05554763 21.26026852 113.62633712 19.98862916 107.19621503 C18.42437658 99.28908265 16.84631527 91.38471964 15.26757812 83.48046875 C14.70609629 80.66899696 14.14470828 77.85750648 13.58345032 75.04598999 C13.44646518 74.35980508 13.30948004 73.67362017 13.16834384 72.96664178 C12.2471054 68.34987981 11.32989126 63.73233098 10.41447449 59.1144104 C10.16737638 57.86950018 9.92027826 56.62458996 9.66569233 55.34195518 C9.17882803 52.88888746 8.6926935 50.43567478 8.20733166 47.98230934 C6.94611353 41.63650516 5.64754331 35.30071855 4.2953186 28.97381592 C4.01362557 27.64709001 3.73202009 26.32034551 3.45050526 24.99358177 C2.91756486 22.49242573 2.37798261 19.99267202 1.83052349 17.4946537 C1.59055551 16.36634321 1.35058752 15.23803272 1.10334778 14.07553101 C0.88984586 13.09248175 0.67634394 12.10943249 0.45637226 11.09659386 C0 8 0 8 0 0 Z " fill="#000000" transform="translate(151,62)"/>
<path d="M0 0 C2.83727325 -0.26667539 5.45383045 -0.34791234 8.2890625 -0.29296875 C9.10748627 -0.28872391 9.92591003 -0.28447906 10.76913452 -0.28010559 C13.38808836 -0.26328679 16.00627802 -0.22562974 18.625 -0.1875 C20.3984264 -0.17245726 22.17186484 -0.15876814 23.9453125 -0.14648438 C28.2971703 -0.11337292 32.64845551 -0.06156952 37 0 C37.18711596 7.23603778 36.46768836 14.1057 35.45532227 21.26513672 C35.29111786 22.46132126 35.12691345 23.6575058 34.95773315 24.88993835 C34.50969119 28.14427999 34.0562501 31.39781064 33.600137 34.65102911 C33.12274886 38.06432664 32.65188823 41.47852511 32.18016052 44.89260864 C31.38817269 50.61746483 30.59150436 56.34165385 29.79174805 62.06542969 C28.86729588 68.68188351 27.94913372 75.29918578 27.03455502 81.91701114 C26.05924344 88.97391698 25.07955917 96.03021056 24.09848666 103.08631754 C23.81642347 105.11706355 23.5351581 107.14791876 23.25406075 109.17879868 C22.7303055 112.95668823 22.20276212 116.73402875 21.67407227 120.51123047 C21.51870499 121.63644608 21.36333771 122.76166168 21.20326233 123.92097473 C20.9866394 125.46006248 20.9866394 125.46006248 20.76564026 127.03024292 C20.64119821 127.92283247 20.51675615 128.81542202 20.38854313 129.73505974 C20 132 20 132 19 135 C44.08 135.33 69.16 135.66 95 136 C95 142.32407791 94.94951326 147.79170501 94.125 153.9375 C93.96257812 155.20464844 93.80015625 156.47179687 93.6328125 157.77734375 C93 161 93 161 91 164 C89.01034546 164.3719368 89.01034546 164.3719368 86.52099609 164.36749268 C85.57875183 164.37306183 84.63650757 164.37863098 83.66571045 164.3843689 C82.11028534 164.37054672 82.11028534 164.37054672 80.5234375 164.35644531 C78.88921844 164.35951187 78.88921844 164.35951187 77.22198486 164.36264038 C73.60615477 164.36565839 69.9907762 164.34714039 66.375 164.328125 C63.87158318 164.32506908 61.36816467 164.32319169 58.86474609 164.32244873 C53.61224915 164.31783925 48.35986867 164.30377709 43.10742188 164.28125 C36.36146402 164.25237674 29.61561132 164.24202708 22.86959839 164.2375679 C17.69847396 164.23341837 12.52737412 164.22360478 7.35626221 164.21169281 C4.8682678 164.20597982 2.38027101 164.20122454 -0.10772705 164.19742584 C-3.57967313 164.19057956 -7.0515222 164.1769548 -10.5234375 164.16113281 C-11.56038757 164.16001495 -12.59733765 164.15889709 -13.66571045 164.15774536 C-15.07907684 164.14918015 -15.07907684 164.14918015 -16.52099609 164.14044189 C-17.34248138 164.13746723 -18.16396667 164.13449257 -19.01034546 164.13142776 C-21 164 -21 164 -23 163 C-23.25828958 154.70028569 -22.48029465 146.78722242 -21.28759766 138.58081055 C-21.1054924 137.28496033 -20.92338715 135.98911011 -20.73576355 134.6539917 C-20.24037448 131.13009857 -19.73568573 127.60759556 -19.22921038 124.08528113 C-18.69747351 120.37573154 -18.17447006 116.66495053 -17.65048218 112.95429993 C-16.65670176 105.92623133 -15.65517721 98.89928948 -14.65081441 91.87272626 C-13.51518499 83.9251157 -12.38825831 75.97627911 -11.26205754 68.0273279 C-6.15043038 31.95223922 -6.15043038 31.95223922 -4.48021317 20.4050045 C-4.13882981 17.98438812 -3.81506257 15.56125876 -3.5033989 13.13663673 C-3.33787144 11.87864454 -3.17234398 10.62065235 -3.00180054 9.32453918 C-2.85716558 8.18455884 -2.71253063 7.0445785 -2.5635128 5.87005329 C-2 3 -2 3 0 0 Z " fill="#000000" transform="translate(56,62)"/>
<path d="M0 0 C4.95 0 9.9 0 15 0 C15.87753169 3.51012674 16.06850875 4.88993849 15.57861328 8.26196289 C15.46164093 9.09284927 15.34466858 9.92373566 15.22415161 10.77980042 C15.0908847 11.66844284 14.9576178 12.55708527 14.8203125 13.47265625 C14.68809296 14.39211533 14.55587341 15.3115744 14.41964722 16.25889587 C14.13900557 18.20022204 13.85466528 20.14101662 13.56689453 22.08129883 C13.1263007 25.05372495 12.69693251 28.02760431 12.26953125 31.00195312 C11.9954471 32.88811619 11.72072896 34.77418727 11.4453125 36.66015625 C11.31609406 37.55082291 11.18687561 38.44148956 11.05374146 39.35914612 C10.86882645 40.60074745 10.86882645 40.60074745 10.68017578 41.86743164 C10.57279083 42.59483047 10.46540588 43.32222931 10.35476685 44.07167053 C10 46 10 46 9 49 C9.83402344 48.45730469 10.66804688 47.91460937 11.52734375 47.35546875 C24.05624887 39.33823879 36.33900746 34.67312008 51.42578125 37.68359375 C60.01608444 40.07144043 65.39962167 42.53846379 69.9375 50.32421875 C78.17534841 65.87730934 78.21531739 83.84428957 73.125 100.58984375 C72.568125 102.27787109 72.568125 102.27787109 72 104 C71.71125 104.92941406 71.4225 105.85882813 71.125 106.81640625 C67.15002502 118.1557322 58.71847394 128.74262992 48.16015625 134.56640625 C37.81554701 139.44017517 25.26272881 141.16871645 14.0625 137.9375 C6.9649178 135.07403949 1.17411756 129.50793159 -4 124 C-4.12375 125.216875 -4.2475 126.43375 -4.375 127.6875 C-4.74531357 131.32891674 -5.55147363 133.37868408 -7 137 C-10.63 137 -14.26 137 -18 137 C-18.92845661 133.28617357 -19.00473003 131.65101244 -18.48832703 128.00610352 C-18.34955139 126.99983414 -18.21077576 125.99356476 -18.0677948 124.95680237 C-17.82867119 123.30949379 -17.82867119 123.30949379 -17.5847168 121.62890625 C-17.42226471 120.46741562 -17.25981262 119.30592499 -17.09243774 118.10923767 C-16.6453589 114.9240618 -16.1914689 111.73994673 -15.7344625 108.55618286 C-15.25628185 105.21398669 -14.78657212 101.87060012 -14.31587219 98.52734375 C-13.52300112 92.90438633 -12.72452162 87.28224939 -11.92211914 81.66064453 C-10.79577515 73.76941362 -9.67985729 65.8767345 -8.56589639 57.98374748 C-7.78957595 52.48594041 -7.01076071 46.98848628 -6.23146462 41.49110031 C-5.95098842 39.51248409 -5.67067173 37.53384527 -5.39035606 35.5552063 C-4.86307694 31.83864553 -4.33364693 28.12239792 -3.8034668 24.40625 C-3.65012375 23.32423813 -3.4967807 22.24222626 -3.33879089 21.12742615 C-2.32823368 14.0660021 -1.19435292 7.03273383 0 0 Z M11 59 C10.00057373 59.76425293 10.00057373 59.76425293 8.98095703 60.54394531 C6.13628286 64.07086449 5.88549665 67.44615981 5.296875 71.859375 C5.16935852 72.72258362 5.04184204 73.58579224 4.91046143 74.47515869 C4.6440951 76.29970008 4.3857073 78.1254217 4.13476562 79.95214844 C3.75293146 82.72868367 3.34751066 85.50093753 2.9375 88.2734375 C2.6808945 90.0518823 2.42564251 91.83052303 2.171875 93.609375 C2.05318054 94.43048767 1.93448608 95.25160034 1.81219482 96.09759521 C0.53830931 105.45226569 0.46771776 112.37451347 5.6875 120.6875 C10.60727976 125.60727976 16.77694279 127.77772019 23.625 128.25 C32.92415938 128.02613135 39.11531376 124.91262788 45.74609375 118.4375 C57.48867895 105.73841306 60.56246521 89.32566127 60.2734375 72.50390625 C59.99798574 65.9707904 58.68200861 60.13324702 54.3515625 55.07421875 C48.00797029 49.27080143 41.99520456 48.54679199 33.5703125 48.6875 C24.94693138 49.44228172 17.73914565 53.75552868 11 59 Z " fill="#000000" transform="translate(286,280)"/>
<path d="M0 0 C4.82282864 4.40859796 7.63968781 9.70130114 8.07579041 16.22311401 C8.12865708 24.62504548 7.16686701 32.76158158 5.9765625 41.06640625 C5.77656296 42.50169492 5.57718804 43.93707074 5.37840271 45.37252808 C4.96391765 48.35324957 4.54408523 51.33314759 4.11987305 54.3125 C3.57597062 58.13346589 3.04255275 61.95580427 2.51265049 65.77873421 C2.1029597 68.73016544 1.6894841 71.68105571 1.27467155 74.63177109 C1.07652676 76.04229526 0.87918121 77.45293195 0.68264961 78.86368179 C0.40866755 80.82385537 0.1293922 82.78328691 -0.15014648 84.74267578 C-0.30780991 85.85675812 -0.46547333 86.97084045 -0.62791443 88.11868286 C-1.08984375 90.74609375 -1.08984375 90.74609375 -2.08984375 92.74609375 C-4.23561012 92.77295313 -6.3814702 92.79242463 -8.52734375 92.80859375 C-9.72230469 92.82019531 -10.91726562 92.83179688 -12.1484375 92.84375 C-15.08984375 92.74609375 -15.08984375 92.74609375 -16.08984375 91.74609375 C-16.16210877 89.89321873 -16.17365595 88.03775497 -16.15234375 86.18359375 C-16.14332031 85.17167969 -16.13429687 84.15976562 -16.125 83.1171875 C-16.11339844 82.33472656 -16.10179687 81.55226563 -16.08984375 80.74609375 C-16.62351563 81.19339844 -17.1571875 81.64070313 -17.70703125 82.1015625 C-30.83559498 92.75432442 -43.38893005 96.03459154 -60.08984375 94.74609375 C-67.40360772 93.34878455 -72.0612915 90.61005898 -76.75 84.84375 C-80.98241539 78.21749033 -80.9079984 71.40168372 -80.08984375 63.74609375 C-76.66330678 53.14082023 -69.75217901 46.7619825 -60.08984375 41.74609375 C-44.33671633 33.94829568 -26.28299952 33.83421871 -9.08984375 32.74609375 C-7.32999372 21.25879717 -7.32999372 21.25879717 -11.08984375 10.74609375 C-14.47126491 6.96521899 -17.83201647 5.89492567 -22.8203125 5.3046875 C-34.07678116 4.7649477 -42.04758312 6.79421411 -50.52734375 14.37109375 C-51.73197266 15.53511719 -51.73197266 15.53511719 -52.9609375 16.72265625 C-55.08984375 18.74609375 -55.08984375 18.74609375 -58.08984375 20.74609375 C-60.7890625 20.06640625 -60.7890625 20.06640625 -63.77734375 18.87109375 C-65.26814453 18.28714844 -65.26814453 18.28714844 -66.7890625 17.69140625 C-67.54832031 17.37945312 -68.30757812 17.0675 -69.08984375 16.74609375 C-68.08626459 10.21167836 -64.82238565 6.84838809 -59.66796875 2.8828125 C-42.75094637 -8.53373295 -17.44366574 -12.69493641 0 0 Z M-57.08984375 53.74609375 C-62.55253998 59.37667426 -64.47129953 63.30263116 -64.3671875 71.23828125 C-63.95196363 74.99284075 -62.63399716 77.00108612 -60.08984375 79.74609375 C-52.68475022 84.22558593 -44.28461322 83.84385636 -35.984375 82.08984375 C-27.00631894 79.15203133 -19.508495 73.46356674 -14.08984375 65.74609375 C-10.90964019 58.43162557 -10.92653714 50.58481105 -11.08984375 42.74609375 C-25.73757823 42.74609375 -45.37475306 43.98351817 -57.08984375 53.74609375 Z " fill="#000000" transform="translate(242.08984375,324.25390625)"/>
<path d="M0 0 C5.61 0 11.22 0 17 0 C18.05120088 3.15360264 17.97102274 4.47322784 17.51956177 7.69296265 C17.32185181 9.13975151 17.32185181 9.13975151 17.12014771 10.61576843 C16.89269363 12.20080925 16.89269363 12.20080925 16.66064453 13.81787109 C16.42918732 15.48897194 16.42918732 15.48897194 16.1930542 17.1938324 C15.67964868 20.88799987 15.15631956 24.5806891 14.6328125 28.2734375 C14.27449159 30.83542136 13.91674145 33.3974851 13.55953979 35.95962524 C12.80867828 41.33533317 12.05353788 46.71041133 11.29443359 52.08496094 C10.22506714 59.65631815 9.16539338 67.22900904 8.10742784 74.80196643 C7.28461851 80.68857904 6.45871752 86.57475856 5.6328125 92.4609375 C5.4567963 93.71644787 5.28078011 94.97195824 5.09943008 96.26551437 C4.6006566 99.8183584 4.09977566 103.3708983 3.59814453 106.92333984 C3.37676315 108.50230797 3.37676315 108.50230797 3.15090942 110.11317444 C3.01346313 111.08334 2.87601685 112.05350555 2.73440552 113.05307007 C2.61603899 113.89261419 2.49767246 114.73215832 2.37571907 115.59714317 C1.98721164 118.08178612 1.51036066 120.53775026 1 123 C1.82463242 122.99777939 2.64926483 122.99555878 3.49888611 122.99327087 C11.25398257 122.97326948 19.00906661 122.95802665 26.76418209 122.94818783 C30.751572 122.94295964 34.73894067 122.93586316 38.72631836 122.92456055 C42.57125114 122.91372939 46.41616345 122.90772268 50.26111031 122.90512276 C51.73118983 122.90326892 53.20126818 122.89964909 54.67133904 122.89426994 C56.72354467 122.88705645 58.77566467 122.88600919 60.82788086 122.88647461 C61.99814316 122.884254 63.16840546 122.88203339 64.37413025 122.87974548 C67 123 67 123 68 124 C68.15775038 128.73251153 67.94043148 132.29784261 67 137 C38.62 137 10.24 137 -19 137 C-18.33824148 128.3971393 -17.55483674 119.98256181 -16.34179688 111.46435547 C-16.17744644 110.28709396 -16.01309601 109.10983246 -15.84376526 107.89689636 C-15.30607656 104.05308923 -14.76258386 100.21012961 -14.21875 96.3671875 C-13.84076607 93.6801978 -13.46383062 90.99306121 -13.08679199 88.30593872 C-12.29945347 82.69932702 -11.50889397 77.09317692 -10.71630859 71.48730469 C-9.80043982 65.00921007 -8.8895074 58.53043581 -7.98120642 52.05127609 C-7.10447212 45.79796019 -6.22453047 39.54509985 -5.34303284 33.29245377 C-4.96884499 30.63795934 -4.59573846 27.98331626 -4.22349548 25.32854843 C-3.70452106 21.6325317 -3.181884 17.93705163 -2.65820312 14.24169922 C-2.50440689 13.14146927 -2.35061066 12.04123932 -2.19215393 10.90766907 C-2.04918381 9.90421951 -1.90621368 8.90076996 -1.75891113 7.86691284 C-1.6357679 6.99426725 -1.51262466 6.12162167 -1.38574982 5.22253227 C-1 3 -1 3 0 0 Z " fill="#000000" transform="translate(77,280)"/>
<path d="M0 0 C3.35891585 2.91540852 6.63142257 5.96517314 9.01171875 9.74609375 C9.01171875 11.06609375 9.01171875 12.38609375 9.01171875 13.74609375 C7.77287556 14.47376378 6.52003534 15.1776419 5.26171875 15.87109375 C4.565625 16.26554687 3.86953125 16.66 3.15234375 17.06640625 C1.01171875 17.74609375 1.01171875 17.74609375 -1.1171875 17.04296875 C-2.98828125 15.74609375 -2.98828125 15.74609375 -5.17578125 12.87109375 C-9.70085303 7.26274721 -15.98392106 5.6473686 -22.92578125 4.87109375 C-31.55936856 4.42131347 -39.70734781 5.88653309 -46.98828125 10.74609375 C-50.48630685 14.15442639 -51.78438695 16.85263065 -51.98828125 21.74609375 C-51.31072015 25.71466589 -50.0614756 26.69180272 -46.796875 29.11328125 C-40.82986706 32.73177984 -34.14610871 34.39311089 -27.48828125 36.30859375 C-4.96529593 42.85071558 -4.96529593 42.85071558 2.01171875 52.74609375 C5.04370681 58.81006987 5.0043582 66.36786882 3.01171875 72.80859375 C-1.68417664 83.44404632 -10.66128899 88.61059742 -20.98828125 92.74609375 C-33.70747628 97.14964813 -50.5757963 96.0997071 -62.69921875 90.4921875 C-69.70120119 86.63373772 -75.34968595 81.73571709 -78.42578125 74.24609375 C-78.70421875 73.00859375 -78.70421875 73.00859375 -78.98828125 71.74609375 C-77.74883849 70.87667881 -76.49621066 70.02603918 -75.23828125 69.18359375 C-74.5421875 68.70792969 -73.84609375 68.23226562 -73.12890625 67.7421875 C-70.98828125 66.74609375 -70.98828125 66.74609375 -68.89453125 66.859375 C-66.45643572 67.99348911 -65.67928575 69.24134554 -64.23828125 71.49609375 C-59.89373545 77.54162132 -55.06701583 80.51576285 -47.80078125 82.12109375 C-36.36805381 83.76791321 -25.65967314 82.19368834 -15.98828125 75.74609375 C-12.86404945 72.62186195 -12.12163239 70.77480257 -11.55078125 66.37109375 C-11.98309001 62.78910688 -12.57699778 60.76528149 -15.09375 58.14453125 C-22.90447705 52.37908737 -34.12763531 50.44625251 -43.38867188 48.06445312 C-52.53076997 45.61135802 -60.73850101 41.95774324 -65.98828125 33.74609375 C-68.71605951 27.46034385 -68.49284022 20.95438986 -66.19921875 14.5390625 C-61.74080688 5.06040638 -55.17759315 -0.23790223 -45.5859375 -4.26171875 C-31.13621947 -9.34999552 -12.69673065 -9.41107022 0 0 Z " fill="#000000" transform="translate(449.98828125,324.25390625)"/>
</svg>
